<svg width="995" height="995" xmlns="http://www.w3.org/2000/svg" xmlns:xlink="http://www.w3.org/1999/xlink" xml:space="preserve" overflow="hidden"><defs><clipPath id="clip0"><rect x="375" y="746" width="995" height="995"/></clipPath><linearGradient x1="1212.3" y1="654.951" x2="532.702" y2="1832.05" gradientUnits="userSpaceOnUse" spreadMethod="reflect" id="fill1"><stop offset="0" stop-color="#FF9191"/><stop offset="0.2" stop-color="#EAFF91"/><stop offset="0.4" stop-color="#91FFBE"/><stop offset="0.6" stop-color="#91BEFF"/><stop offset="0.8" stop-color="#EA91FF"/><stop offset="1" stop-color="#FF9191"/></linearGradient></defs><g clip-path="url(#clip0)" transform="translate(-375 -746)"><path d="M375 1243.5C375 968.738 597.739 746 872.5 746 1147.26 746 1370 968.738 1370 1243.5 1370 1518.26 1147.26 1741 872.5 1741 597.739 1741 375 1518.26 375 1243.5ZM552.578 1243.5C552.578 1420.19 695.812 1563.42 872.5 1563.42 1049.19 1563.42 1192.42 1420.19 1192.42 1243.5 1192.42 1066.81 1049.19 923.578 872.5 923.578 695.812 923.578 552.578 1066.81 552.578 1243.5Z" fill="url(#fill1)" fill-rule="evenodd"/></g></svg>