<svg width="784" height="1137" xmlns="http://www.w3.org/2000/svg" xmlns:xlink="http://www.w3.org/1999/xlink" xml:space="preserve" overflow="hidden"><defs><clipPath id="clip0"><rect x="1946" y="746" width="784" height="1137"/></clipPath><linearGradient x1="2605.74" y1="674.259" x2="2070.26" y2="1601.74" gradientUnits="userSpaceOnUse" spreadMethod="reflect" id="fill1"><stop offset="0" stop-color="#FF9191"/><stop offset="0.2" stop-color="#EAFF91"/><stop offset="0.4" stop-color="#91FFBE"/><stop offset="0.6" stop-color="#91BEFF"/><stop offset="0.8" stop-color="#EA91FF"/><stop offset="1" stop-color="#FF9191"/></linearGradient></defs><g clip-path="url(#clip0)" transform="translate(-1946 -746)"><text fill="#404140" font-family="Px437 Acer710 Mono,Px437 Acer710 Mono_MSFontService,sans-serif" font-weight="400" font-size="220" transform="matrix(1 0 0 1 2090.82 1694)">iris</text><path d="M1946 1138C1946 921.504 2121.5 746 2338 746 2554.5 746 2730 921.504 2730 1138 2730 1354.5 2554.5 1530 2338 1530 2121.5 1530 1946 1354.5 1946 1138ZM2085.92 1138C2085.92 1277.22 2198.78 1390.08 2338 1390.08 2477.22 1390.08 2590.08 1277.22 2590.08 1138 2590.08 998.78 2477.22 885.92 2338 885.92 2198.78 885.92 2085.92 998.78 2085.92 1138Z" fill="url(#fill1)" fill-rule="evenodd"/></g></svg>