<svg width="395" height="930" xmlns="http://www.w3.org/2000/svg" xmlns:xlink="http://www.w3.org/1999/xlink" xml:space="preserve" overflow="hidden"><defs><clipPath id="clip0"><rect x="3394" y="766" width="395" height="930"/></clipPath><linearGradient x1="3689.82" y1="739.338" x2="3492.18" y2="1081.66" gradientUnits="userSpaceOnUse" spreadMethod="reflect" id="fill1"><stop offset="0" stop-color="#FF9191"/><stop offset="0.2" stop-color="#EAFF91"/><stop offset="0.4" stop-color="#91FFBE"/><stop offset="0.6" stop-color="#91BEFF"/><stop offset="0.8" stop-color="#EA91FF"/><stop offset="1" stop-color="#FF9191"/></linearGradient></defs><g clip-path="url(#clip0)" transform="translate(-3394 -766)"><path d="M3394 1105 3690.25 1105 3690.25 1597.5 3789 1597.5 3789 1696 3394 1696 3394 1597.5 3492.75 1597.5 3492.75 1203.5 3394 1203.5 3394 1105Z" fill="#404140" fill-rule="evenodd"/><path d="M3446 910.5C3446 830.695 3510.92 766 3591 766 3671.08 766 3736 830.695 3736 910.5 3736 990.305 3671.08 1055 3591 1055 3510.92 1055 3446 990.305 3446 910.5ZM3497.58 910.5C3497.58 961.82 3539.4 1003.42 3591 1003.42 3642.6 1003.42 3684.42 961.82 3684.42 910.5 3684.42 859.181 3642.6 817.578 3591 817.578 3539.4 817.578 3497.58 859.181 3497.58 910.5Z" fill="url(#fill1)" fill-rule="evenodd"/></g></svg>